<!DOCTYPE svg PUBLIC "-//W3C//DTD SVG 1.1//EN" "http://www.w3.org/Graphics/SVG/1.1/DTD/svg11.dtd">
<!-- Uploaded to: SVG Repo, www.svgrepo.com, Transformed by: SVG Repo Mixer Tools -->
<svg height="800px" width="800px" version="1.1" id="_x32_" xmlns="http://www.w3.org/2000/svg" xmlns:xlink="http://www.w3.org/1999/xlink" viewBox="0 0 512 512" xml:space="preserve" fill="#000000">
<g id="SVGRepo_bgCarrier" stroke-width="0"/>
<g id="SVGRepo_tracerCarrier" stroke-linecap="round" stroke-linejoin="round"/>
<g id="SVGRepo_iconCarrier"> <style type="text/css"> .st0{fill:#ffffff;} </style> <g> <path class="st0" d="M503.467,21.068H8.533C3.84,21.068,0,24.908,0,29.601v372.797c0,4.693,3.84,8.533,8.533,8.533h494.934 c4.693,0,8.533-3.84,8.533-8.533V29.601C512,24.908,508.16,21.068,503.467,21.068z M56.537,354.395V77.607h398.926v276.789H59.568 L56.537,354.395z"/> <path class="st0" d="M160.533,442.932h-47.369l-0.39-0.002v0.002h-0.24c0,8.656,0,38.531,0,47.662v0.097l0,0c0,0.072,0,0.17,0,0.24 h48h190.934h47.998c0-8.754,0-39.246,0-48h-47.998H160.533z"/> <polygon class="st0" points="148.238,165.219 148.238,165.219 147.998,165.219 147.998,194.406 179.207,194.406 179.207,266.785 216.088,266.785 216.088,194.406 246.992,194.406 247.057,194.406 247.057,194.406 247.297,194.406 247.297,165.219 148.442,165.219 "/> <polygon class="st0" points="379.894,165.457 380.002,165.219 340.598,165.219 329.037,192.738 320.973,211.51 301.524,165.219 273.918,165.219 262.524,165.121 262.566,165.219 262.305,165.219 307.998,266.785 334.113,266.785 366.558,194.971 380.002,165.457 "/> </g> </g>
</svg>