<?xml version="1.0" encoding="utf-8"?><!-- Uploaded to: SVG Repo, www.svgrepo.com, Generator: SVG Repo Mixer Tools -->
<svg fill="#000000" width="800px" height="800px" viewBox="0 -6 46 46" xmlns="http://www.w3.org/2000/svg">
  <path id="_24.TV" data-name="24.TV" d="M46,37H2a1,1,0,0,1-1-1V8A1,1,0,0,1,2,7H46a1,1,0,0,1,1,1V36A1,1,0,0,1,46,37ZM45,9H3V35H45ZM21,16a.975.975,0,0,1,.563.2l7.771,4.872a.974.974,0,0,1,.261,1.715l-7.974,4.981A.982.982,0,0,1,21,28a1,1,0,0,1-1-1V17A1,1,0,0,1,21,16ZM15,39H33a1,1,0,0,1,0,2H15a1,1,0,0,1,0-2Z" transform="translate(-1 -7)" fill-rule="evenodd"/>
</svg>